<svg width="43" height="32" viewBox="0 0 43 32" version="1.1" xmlns="http://www.w3.org/2000/svg" xmlns:xlink="http://www.w3.org/1999/xlink">
      <defs>
      <symbol id="icon-logo" viewBox="0 0 43 32">
      <path d="M12.133 0.369c-0.013 0.013-0.138 0.031-0.28 0.036-0.138 0.004-0.253 0.027-0.253 0.049 0 0.018-0.098 0.036-0.222 0.036-0.12 0-0.222 0.018-0.222 0.044 0 0.022-0.089 0.044-0.196 0.044-0.111 0-0.213 0.018-0.227 0.044-0.013 0.022-0.098 0.044-0.182 0.044s-0.151 0.018-0.151 0.044c0 0.022-0.080 0.044-0.178 0.044s-0.178 0.018-0.178 0.044c0 0.022-0.049 0.044-0.107 0.044-0.062 0-0.124 0.018-0.138 0.044-0.013 0.022-0.076 0.044-0.138 0.044-0.058 0-0.107 0.018-0.107 0.044 0 0.022-0.058 0.044-0.133 0.044-0.071 0-0.133 0.018-0.133 0.044 0 0.022-0.058 0.044-0.133 0.044-0.071 0-0.133 0.018-0.133 0.040s-0.053 0.049-0.12 0.062c-0.196 0.040-0.458 0.138-0.458 0.173 0 0.022-0.058 0.036-0.133 0.036-0.071 0-0.133 0.018-0.133 0.044 0 0.022-0.040 0.044-0.089 0.044s-0.089 0.018-0.089 0.044c0 0.022-0.031 0.044-0.067 0.044s-0.067 0.018-0.067 0.044c0 0.022-0.040 0.044-0.089 0.044s-0.089 0.018-0.089 0.044c0 0.022-0.040 0.044-0.089 0.044s-0.089 0.018-0.089 0.044c0 0.022-0.031 0.044-0.071 0.044-0.036 0-0.098 0.031-0.138 0.067-0.036 0.036-0.084 0.058-0.107 0.044-0.022-0.018-0.040-0.009-0.040 0.018 0 0.022-0.111 0.098-0.244 0.16-0.133 0.067-0.244 0.138-0.244 0.16s-0.040 0.040-0.089 0.040c-0.049 0-0.089 0.018-0.089 0.044 0 0.022-0.036 0.044-0.080 0.044s-0.107 0.040-0.142 0.089c-0.036 0.049-0.080 0.089-0.102 0.089s-0.098 0.058-0.164 0.133c-0.067 0.071-0.156 0.133-0.196 0.133-0.036 0-0.116 0.049-0.178 0.111s-0.129 0.111-0.156 0.111c-0.022 0-0.093 0.058-0.151 0.133-0.062 0.071-0.133 0.133-0.16 0.133-0.040 0-0.28 0.204-0.564 0.476-0.058 0.058-0.111 0.102-0.124 0.102-0.009 0-0.147 0.133-0.302 0.293-0.711 0.742-0.924 0.973-0.924 1.009 0 0.022-0.067 0.102-0.147 0.178-0.084 0.080-0.236 0.271-0.342 0.431s-0.222 0.316-0.253 0.347c-0.031 0.031-0.058 0.076-0.058 0.093 0 0.022-0.049 0.089-0.107 0.151s-0.133 0.173-0.164 0.249c-0.036 0.076-0.076 0.138-0.093 0.138-0.022 0-0.036 0.022-0.036 0.044 0 0.027-0.049 0.124-0.107 0.218-0.187 0.298-0.698 1.293-0.662 1.293 0.022 0 0.013 0.018-0.013 0.036s-0.102 0.182-0.169 0.364c-0.067 0.182-0.138 0.369-0.164 0.409-0.022 0.044-0.040 0.12-0.040 0.169s-0.018 0.089-0.044 0.089c-0.022 0-0.044 0.058-0.044 0.133 0 0.071-0.018 0.133-0.044 0.133-0.022 0-0.044 0.058-0.044 0.133 0 0.071-0.018 0.133-0.040 0.133s-0.049 0.053-0.062 0.12c-0.062 0.307-0.084 0.396-0.12 0.48-0.044 0.107-0.062 0.178-0.231 1.044-0.080 0.409-0.080 4.436 0 4.844 0.031 0.16 0.076 0.387 0.102 0.511 0.022 0.12 0.058 0.298 0.071 0.387 0.013 0.093 0.040 0.169 0.062 0.169s0.040 0.044 0.040 0.098c0 0.102 0.071 0.36 0.138 0.489 0.022 0.044 0.040 0.12 0.040 0.169s0.022 0.089 0.044 0.089c0.027 0 0.044 0.058 0.044 0.133 0 0.071 0.022 0.133 0.044 0.133 0.027 0 0.044 0.049 0.044 0.107 0 0.062 0.022 0.124 0.044 0.138 0.027 0.013 0.044 0.067 0.044 0.111 0 0.049 0.049 0.191 0.107 0.32s0.151 0.347 0.209 0.48c0.058 0.133 0.12 0.249 0.142 0.258 0.018 0.009 0.031 0.053 0.031 0.102 0 0.044 0.022 0.084 0.044 0.084 0.027 0 0.044 0.040 0.044 0.089s0.022 0.089 0.044 0.089c0.027 0 0.044 0.018 0.044 0.040 0 0.071 0.556 1.027 0.733 1.258 0.253 0.329 0.293 0.387 0.289 0.418-0.004 0.018 0.009 0.044 0.031 0.058s0.098 0.107 0.173 0.204c0.071 0.098 0.173 0.222 0.227 0.28 0.058 0.058 0.102 0.12 0.102 0.138 0 0.022 0.129 0.169 0.289 0.333s0.289 0.316 0.289 0.338c0 0.027 0.027 0.044 0.058 0.044s0.084 0.044 0.12 0.098c0.036 0.053 0.142 0.169 0.24 0.253 0.093 0.089 0.276 0.258 0.4 0.382 0.378 0.364 1.173 1 1.231 0.987 0.018-0.004 0.067 0.031 0.111 0.080 0.12 0.129 0.342 0.267 0.409 0.253 0.027-0.009 0.053 0.013 0.053 0.049 0 0.058 0.147 0.156 0.489 0.333 0.084 0.040 0.236 0.129 0.333 0.191 0.098 0.058 0.28 0.16 0.4 0.218 0.124 0.062 0.227 0.124 0.236 0.142 0.009 0.022 0.044 0.036 0.076 0.036s0.133 0.036 0.231 0.084c0.342 0.164 0.507 0.227 0.618 0.227 0.062 0 0.098 0.018 0.084 0.044-0.013 0.022 0.013 0.044 0.062 0.044s0.102 0.018 0.116 0.044c0.013 0.022 0.076 0.044 0.138 0.044 0.058 0 0.107 0.018 0.107 0.044 0 0.022 0.062 0.044 0.133 0.044 0.076 0 0.133 0.018 0.133 0.044 0 0.022 0.049 0.044 0.107 0.044 0.062 0 0.124 0.018 0.138 0.044 0.013 0.022 0.098 0.044 0.182 0.044s0.151 0.018 0.151 0.044c0 0.022 0.058 0.044 0.129 0.044 0.076 0 0.142 0.018 0.156 0.040s0.089 0.049 0.169 0.062c0.164 0.031 0.467 0.089 0.836 0.169 0.156 0.031 0.982 0.058 2.289 0.071 1.938 0.018 2.538 0 2.493-0.067-0.009-0.018 0.076-0.036 0.187-0.040 0.293-0.009 0.582-0.062 0.613-0.107 0.013-0.022 0.089-0.040 0.173-0.040s0.164-0.022 0.178-0.044c0.013-0.027 0.093-0.044 0.178-0.044s0.164-0.022 0.178-0.044c0.013-0.027 0.076-0.044 0.133-0.044s0.12-0.022 0.133-0.044c0.013-0.027 0.084-0.044 0.16-0.044 0.071 0 0.129-0.022 0.129-0.044 0-0.027 0.049-0.044 0.111-0.044s0.111-0.022 0.111-0.044c0-0.027 0.044-0.044 0.102-0.044s0.12-0.018 0.147-0.036c0.022-0.022 0.124-0.067 0.231-0.098 0.102-0.031 0.187-0.071 0.187-0.089s0.044-0.036 0.102-0.036c0.053 0 0.24-0.067 0.409-0.151 0.502-0.253 1.2-0.622 1.222-0.653 0.013-0.013 0.098-0.062 0.191-0.102 0.093-0.044 0.178-0.111 0.191-0.147 0.018-0.036 0.067-0.067 0.111-0.067s0.107-0.040 0.138-0.089c0.031-0.049 0.093-0.089 0.138-0.089 0.049 0 0.093-0.040 0.107-0.089s0.040-0.076 0.062-0.062c0.022 0.013 0.116-0.036 0.204-0.111 0.093-0.076 0.182-0.138 0.2-0.138 0.036 0 0.187-0.124 0.507-0.427 0.107-0.098 0.204-0.173 0.213-0.164 0.027 0.031 1.36-1.298 1.36-1.356 0-0.031 0.12-0.178 0.267-0.324 0.2-0.2 0.267-0.298 0.262-0.387 0-0.067-0.009-0.102-0.022-0.076-0.009 0.027-0.462 0.040-1.258 0.031l-1.236-0.013-0.151 0.138c-0.084 0.076-0.289 0.267-0.462 0.427-0.462 0.422-0.618 0.551-0.671 0.551-0.031 0-0.098 0.058-0.156 0.133-0.058 0.071-0.138 0.133-0.173 0.133-0.040 0-0.098 0.040-0.133 0.089s-0.093 0.089-0.129 0.089c-0.031 0-0.093 0.036-0.133 0.080-0.040 0.040-0.129 0.107-0.204 0.142-0.071 0.036-0.16 0.093-0.191 0.124-0.031 0.027-0.098 0.053-0.147 0.053-0.044 0-0.084 0.018-0.084 0.044 0 0.022-0.040 0.044-0.089 0.044s-0.089 0.018-0.089 0.036c0 0.049-0.342 0.231-0.431 0.231-0.036 0-0.049 0.018-0.036 0.044 0.018 0.027-0.022 0.044-0.084 0.044s-0.116 0.018-0.116 0.044c0 0.022-0.040 0.044-0.089 0.044s-0.089 0.018-0.089 0.044c0 0.022-0.040 0.044-0.089 0.044s-0.089 0.018-0.089 0.044c0 0.022-0.049 0.044-0.111 0.044s-0.111 0.018-0.111 0.040c0 0.027-0.089 0.058-0.2 0.076-0.111 0.013-0.213 0.044-0.227 0.067s-0.080 0.040-0.156 0.040c-0.071 0-0.129 0.018-0.129 0.044 0 0.022-0.049 0.044-0.111 0.044s-0.111 0.018-0.111 0.044c0 0.022-0.080 0.044-0.182 0.044-0.107 0-0.169 0.018-0.151 0.044s-0.036 0.044-0.129 0.044c-0.084 0-0.169 0.018-0.182 0.044-0.013 0.022-0.107 0.044-0.204 0.044-0.093 0-0.173 0.018-0.173 0.044 0 0.022-0.089 0.044-0.2 0.044s-0.2 0.018-0.2 0.044c0 0.027-0.133 0.044-0.311 0.044s-0.311 0.018-0.311 0.044c0 0.027-0.213 0.044-0.556 0.044-0.364 0-0.591 0.018-0.649 0.053-0.076 0.044-0.102 0.044-0.116 0-0.013-0.027-0.040-0.053-0.062-0.053-0.027 0-0.031 0.018-0.018 0.044 0.018 0.027-0.031 0.044-0.107 0.044s-0.138-0.022-0.138-0.044c0-0.027-0.213-0.044-0.556-0.044s-0.556-0.018-0.556-0.044c0-0.027-0.124-0.044-0.289-0.044s-0.289-0.018-0.289-0.044c0-0.027-0.107-0.044-0.24-0.044s-0.258-0.022-0.271-0.044c-0.013-0.027-0.098-0.044-0.182-0.044s-0.151-0.022-0.151-0.044c0-0.027-0.080-0.044-0.178-0.044s-0.178-0.022-0.178-0.044c0-0.027-0.049-0.044-0.107-0.044-0.062 0-0.124-0.022-0.138-0.044-0.013-0.027-0.098-0.044-0.182-0.044s-0.151-0.022-0.151-0.044c0-0.027-0.058-0.044-0.129-0.044s-0.138-0.022-0.147-0.049c-0.009-0.022-0.098-0.058-0.204-0.071-0.102-0.013-0.187-0.044-0.187-0.062 0-0.022-0.040-0.040-0.089-0.040s-0.089-0.022-0.089-0.044c0-0.027-0.058-0.044-0.133-0.044-0.071 0-0.133-0.022-0.133-0.044 0-0.027-0.031-0.044-0.067-0.044s-0.067-0.022-0.067-0.044c0-0.027-0.040-0.044-0.089-0.044s-0.089-0.022-0.089-0.044c0-0.027-0.040-0.044-0.084-0.044-0.049 0-0.093-0.013-0.102-0.036-0.018-0.044-0.387-0.231-0.462-0.231-0.036 0-0.062-0.018-0.062-0.044 0-0.022-0.049-0.053-0.111-0.071-0.062-0.013-0.111-0.044-0.111-0.067s-0.036-0.040-0.080-0.040c-0.044 0-0.107-0.040-0.142-0.089s-0.093-0.089-0.133-0.089c-0.040 0-0.098-0.040-0.133-0.089s-0.084-0.089-0.116-0.089c-0.027 0-0.084-0.040-0.129-0.089s-0.098-0.089-0.12-0.089c-0.022 0-0.089-0.049-0.151-0.111s-0.151-0.111-0.196-0.111c-0.049 0-0.089-0.027-0.089-0.058 0-0.027-0.062-0.102-0.142-0.164-0.076-0.062-0.164-0.138-0.196-0.169-0.031-0.027-0.067-0.053-0.080-0.053-0.036 0-0.933-0.907-1.102-1.12-0.080-0.098-0.231-0.267-0.329-0.369-0.102-0.102-0.2-0.227-0.213-0.271-0.013-0.049-0.071-0.138-0.124-0.204-0.196-0.227-0.236-0.284-0.298-0.404-0.036-0.067-0.080-0.12-0.102-0.12-0.018 0-0.036-0.031-0.036-0.067s-0.040-0.089-0.089-0.12c-0.049-0.031-0.089-0.093-0.089-0.133 0-0.044-0.018-0.080-0.044-0.080-0.022 0-0.044-0.036-0.044-0.084 0-0.044-0.031-0.107-0.067-0.138s-0.067-0.093-0.067-0.138c0-0.049-0.013-0.084-0.036-0.084-0.018 0-0.058-0.067-0.093-0.142-0.036-0.080-0.098-0.2-0.147-0.267-0.044-0.062-0.080-0.147-0.080-0.187s-0.018-0.071-0.044-0.071c-0.022 0-0.044-0.049-0.044-0.111s-0.018-0.111-0.044-0.111c-0.022 0-0.044-0.027-0.044-0.058 0-0.080-0.107-0.298-0.142-0.298-0.022 0-0.036-0.044-0.036-0.102 0-0.098-0.111-0.476-0.182-0.618-0.022-0.044-0.040-0.12-0.040-0.164 0-0.049-0.018-0.102-0.044-0.116-0.022-0.013-0.044-0.098-0.044-0.182 0-0.093-0.018-0.147-0.044-0.129s-0.044-0.036-0.044-0.129c0-0.089-0.018-0.16-0.044-0.16-0.022 0-0.044-0.080-0.044-0.178s-0.018-0.178-0.044-0.178c-0.022 0-0.044-0.111-0.044-0.244s-0.018-0.244-0.044-0.244c-0.027 0-0.044-0.124-0.044-0.284s-0.018-0.302-0.044-0.316c-0.062-0.036-0.062-2.644 0-2.644 0.027 0 0.044-0.133 0.044-0.311s0.018-0.311 0.044-0.311c0.027 0 0.044-0.089 0.044-0.196 0-0.111 0.022-0.213 0.044-0.227 0.027-0.013 0.044-0.116 0.044-0.227 0-0.107 0.022-0.196 0.044-0.196 0.027 0 0.044-0.071 0.044-0.156s0.022-0.156 0.044-0.156c0.027 0 0.044-0.049 0.044-0.107s0.036-0.182 0.076-0.276c0.040-0.098 0.080-0.213 0.089-0.262s0.044-0.164 0.080-0.258c0.036-0.089 0.067-0.218 0.067-0.28s0.018-0.102 0.044-0.084c0.027 0.013 0.044-0.013 0.044-0.062s0.022-0.102 0.044-0.116c0.027-0.013 0.044-0.076 0.044-0.138 0-0.058 0.022-0.107 0.044-0.107 0.027 0 0.044-0.040 0.044-0.089s0.013-0.089 0.036-0.089c0.018 0 0.080-0.111 0.142-0.244s0.124-0.244 0.147-0.244c0.018 0 0.031-0.031 0.031-0.067 0-0.076 0.080-0.231 0.164-0.324 0.031-0.031 0.058-0.098 0.058-0.147s0.022-0.076 0.044-0.062c0.027 0.013 0.044-0.009 0.044-0.053s0.040-0.111 0.089-0.147c0.049-0.036 0.089-0.093 0.089-0.133s0.040-0.098 0.089-0.133c0.049-0.036 0.089-0.093 0.089-0.133s0.040-0.098 0.089-0.133c0.049-0.036 0.089-0.080 0.089-0.102 0-0.018 0.049-0.089 0.111-0.156s0.111-0.147 0.111-0.178c0-0.031 0.102-0.156 0.222-0.276 0.124-0.12 0.222-0.227 0.222-0.244 0-0.058 1.12-1.178 1.178-1.178 0.018 0 0.124-0.102 0.244-0.222 0.12-0.124 0.244-0.222 0.276-0.222s0.111-0.049 0.178-0.111c0.067-0.062 0.138-0.111 0.156-0.111 0.022 0 0.067-0.040 0.102-0.089s0.093-0.089 0.133-0.089c0.040 0 0.098-0.040 0.133-0.089s0.093-0.089 0.133-0.089c0.040 0 0.098-0.040 0.133-0.089s0.089-0.089 0.124-0.089c0.031 0 0.098-0.040 0.151-0.089 0.053-0.044 0.111-0.076 0.133-0.062 0.018 0.013 0.036 0 0.036-0.022 0-0.027 0.040-0.049 0.089-0.049s0.089-0.022 0.089-0.044c0-0.027 0.040-0.044 0.089-0.044s0.089-0.022 0.089-0.044c0-0.027 0.040-0.044 0.089-0.044s0.089-0.022 0.089-0.044c0-0.027 0.040-0.044 0.089-0.044s0.089-0.013 0.089-0.036c0-0.040 0.218-0.142 0.302-0.142 0.031 0 0.044-0.022 0.031-0.044-0.018-0.027 0.031-0.044 0.111-0.044s0.129-0.018 0.111-0.044c-0.018-0.027 0.022-0.044 0.084-0.044s0.116-0.022 0.116-0.044c0-0.027 0.044-0.044 0.102-0.044 0.053-0.004 0.147-0.031 0.209-0.067s0.164-0.062 0.236-0.067c0.067 0 0.12-0.022 0.12-0.044 0-0.027 0.062-0.044 0.133-0.044 0.076 0 0.133-0.022 0.133-0.044 0-0.027 0.071-0.044 0.156-0.044s0.156-0.022 0.156-0.044c0-0.027 0.067-0.044 0.151-0.044s0.169-0.022 0.182-0.044c0.013-0.027 0.107-0.044 0.204-0.044 0.107 0 0.169-0.018 0.151-0.044s0.058-0.044 0.196-0.044c0.124 0 0.227-0.022 0.227-0.044 0-0.027 0.124-0.044 0.289-0.044s0.289-0.018 0.289-0.044c0-0.027 0.502-0.044 1.422-0.044s1.422 0.018 1.422 0.044c0 0.027 0.133 0.044 0.316 0.044 0.196 0 0.302 0.018 0.284 0.044s0.058 0.044 0.196 0.044c0.124 0 0.227 0.018 0.227 0.036s0.084 0.040 0.191 0.049c0.102 0.004 0.204 0.027 0.231 0.053 0.022 0.022 0.107 0.040 0.191 0.040s0.138 0.018 0.12 0.044c-0.018 0.027 0.036 0.044 0.129 0.044 0.089 0 0.16 0.018 0.16 0.044 0 0.022 0.040 0.044 0.089 0.044s0.124 0.018 0.169 0.040c0.040 0.022 0.196 0.076 0.342 0.116s0.302 0.089 0.342 0.116c0.044 0.022 0.111 0.040 0.147 0.040s0.067 0.018 0.067 0.044c0 0.022 0.040 0.044 0.089 0.044s0.089 0.018 0.089 0.044c0 0.022 0.040 0.044 0.089 0.044s0.089 0.018 0.089 0.044c0 0.022 0.062 0.044 0.133 0.044 0.076 0 0.133 0.018 0.133 0.044 0 0.022 0.031 0.044 0.071 0.044 0.036 0 0.053 0.018 0.040 0.044-0.018 0.027 0.022 0.044 0.084 0.044s0.116 0.018 0.116 0.040c0 0.044 0.458 0.271 0.547 0.271 0.031 0 0.080 0.040 0.111 0.089s0.080 0.089 0.111 0.089c0.031 0 0.084 0.040 0.12 0.089s0.093 0.089 0.133 0.089c0.040 0 0.098 0.040 0.133 0.089s0.093 0.089 0.133 0.089c0.040 0 0.098 0.040 0.133 0.089s0.080 0.089 0.102 0.089c0.036 0 0.107 0.053 0.276 0.209 0.058 0.058 0.129 0.102 0.151 0.102 0.027 0 0.196 0.151 0.378 0.333s0.356 0.333 0.387 0.333c0.031 0 0.040 0.013 0.027 0.031-0.018 0.013 0.004 0.053 0.049 0.084 0.062 0.044 0.387 0.058 1.302 0.062 0.671 0.004 1.244 0.004 1.276 0.004 0.12-0.009 0.040-0.182-0.213-0.449-0.147-0.156-0.267-0.298-0.267-0.32 0-0.058-1.253-1.298-1.329-1.316-0.031-0.004-0.133-0.093-0.227-0.187-0.093-0.098-0.196-0.178-0.222-0.178s-0.036-0.022-0.022-0.044c0.013-0.027 0.004-0.044-0.022-0.044s-0.102-0.049-0.164-0.111c-0.067-0.058-0.178-0.129-0.244-0.16-0.067-0.027-0.124-0.067-0.124-0.089s-0.040-0.040-0.084-0.040c-0.049 0-0.102-0.040-0.116-0.089s-0.058-0.089-0.093-0.089c-0.036 0-0.062-0.022-0.062-0.044 0-0.027-0.027-0.044-0.062-0.044s-0.071-0.018-0.080-0.040c-0.004-0.022-0.044-0.049-0.080-0.058s-0.098-0.049-0.138-0.093c-0.040-0.040-0.098-0.076-0.124-0.076-0.031 0-0.098-0.040-0.151-0.093-0.053-0.049-0.151-0.102-0.218-0.116-0.071-0.013-0.124-0.040-0.124-0.062s-0.040-0.040-0.089-0.040c-0.049 0-0.089-0.022-0.089-0.044 0-0.027-0.040-0.044-0.089-0.044s-0.089-0.022-0.089-0.044c0-0.027-0.040-0.044-0.089-0.044s-0.089-0.022-0.089-0.044c0-0.027-0.040-0.044-0.089-0.044s-0.089-0.022-0.089-0.044c0-0.027-0.031-0.044-0.067-0.044s-0.067-0.022-0.067-0.044c0-0.027-0.040-0.044-0.089-0.044s-0.089-0.018-0.089-0.036c0-0.018-0.093-0.062-0.209-0.093-0.12-0.036-0.253-0.089-0.302-0.124-0.049-0.031-0.151-0.058-0.231-0.058s-0.147-0.022-0.147-0.044c0-0.027-0.031-0.044-0.067-0.044s-0.067-0.022-0.067-0.044c0-0.027-0.058-0.044-0.133-0.044-0.071 0-0.133-0.022-0.133-0.044 0-0.027-0.058-0.044-0.133-0.044-0.071 0-0.133-0.022-0.133-0.044 0-0.027-0.071-0.044-0.156-0.044s-0.156-0.022-0.156-0.044c0-0.027-0.071-0.044-0.156-0.044s-0.156-0.022-0.156-0.044c0-0.027-0.080-0.044-0.173-0.044-0.098 0-0.191-0.022-0.204-0.044-0.013-0.027-0.107-0.044-0.204-0.044-0.093 0-0.173-0.022-0.173-0.044 0-0.027-0.107-0.044-0.24-0.044-0.156 0-0.249-0.022-0.258-0.058-0.018-0.040-0.471-0.058-2.018-0.067-1.098-0.009-2.004-0.004-2.018 0.004z"></path>
      <path d="M8.444 7.4c0 0.036-0.018 0.067-0.044 0.067s-0.044 0.116-0.044 0.258c0 0.142-0.018 0.276-0.044 0.302-0.022 0.022-0.044 0.156-0.049 0.293-0.004 0.142-0.027 0.244-0.049 0.231-0.018-0.013-0.036 0.098-0.036 0.244 0 0.151-0.018 0.271-0.044 0.271s-0.044 0.12-0.044 0.267c0 0.147-0.018 0.267-0.040 0.267-0.036 0-0.093 0.427-0.107 0.853-0.004 0.12-0.022 0.213-0.040 0.213-0.022 0-0.036 0.12-0.036 0.267s-0.018 0.267-0.044 0.267c-0.022 0-0.044 0.111-0.044 0.244s-0.018 0.244-0.044 0.244c-0.027 0-0.044 0.116-0.044 0.262s-0.018 0.271-0.044 0.28c-0.022 0.004-0.044 0.138-0.049 0.289-0.004 0.156-0.027 0.28-0.044 0.28-0.022 0-0.040 0.089-0.040 0.196 0 0.111-0.018 0.213-0.044 0.227-0.022 0.013-0.044 0.156-0.044 0.316s-0.018 0.284-0.044 0.284c-0.022 0-0.044 0.098-0.044 0.218 0 0.124-0.018 0.236-0.044 0.249-0.022 0.013-0.044 0.147-0.044 0.289s-0.018 0.267-0.040 0.276c-0.022 0.004-0.049 0.124-0.053 0.258s-0.031 0.293-0.058 0.351c-0.084 0.196 0.049 0.236 0.738 0.218 0.333-0.009 0.622-0.027 0.64-0.049 0.018-0.018 0.040-0.111 0.044-0.204s0.031-0.276 0.062-0.4c0.031-0.124 0.040-0.258 0.027-0.298-0.013-0.036-0.004-0.098 0.018-0.142 0.022-0.040 0.053-0.151 0.067-0.244l0.027-0.164h0.644c0.764 0 0.773 0.004 0.773 0.396 0 0.151 0.018 0.271 0.036 0.271 0.022 0 0.044 0.124 0.049 0.276 0.004 0.156 0.027 0.298 0.053 0.32 0.022 0.027 0.040 0.080 0.040 0.12s0.031 0.089 0.071 0.102c0.089 0.036 1.231 0.036 1.32 0 0.053-0.018 0.062-0.084 0.044-0.342-0.013-0.178-0.040-0.329-0.062-0.333-0.022-0.009-0.040-0.147-0.040-0.302 0-0.16-0.018-0.284-0.044-0.284-0.022 0-0.044-0.111-0.044-0.244s-0.018-0.244-0.044-0.244c-0.027 0-0.044-0.116-0.044-0.262s-0.022-0.28-0.044-0.293c-0.027-0.018-0.036-0.044-0.027-0.062 0.013-0.018 0.004-0.142-0.018-0.276s-0.053-0.329-0.067-0.44c-0.018-0.191-0.058-0.427-0.16-1.044-0.022-0.147-0.053-0.378-0.067-0.511s-0.044-0.262-0.067-0.289c-0.022-0.022-0.040-0.147-0.040-0.271 0-0.129-0.018-0.249-0.044-0.262-0.022-0.013-0.044-0.133-0.044-0.262 0-0.124-0.018-0.249-0.040-0.276-0.022-0.022-0.053-0.151-0.067-0.284-0.062-0.604-0.080-0.738-0.12-0.778-0.022-0.022-0.040-0.147-0.040-0.276s-0.018-0.236-0.044-0.236c-0.027 0-0.044-0.116-0.044-0.262s-0.018-0.28-0.044-0.293c-0.022-0.013-0.044-0.067-0.044-0.116 0-0.080-0.040-0.084-1-0.084-0.858 0-1 0.009-1 0.067zM9.467 10.138c0 0.164 0.018 0.258 0.044 0.24s0.044 0.089 0.044 0.284c0 0.173 0.018 0.316 0.040 0.316s0.053 0.249 0.071 0.556c0.018 0.307 0.049 0.556 0.071 0.556s0.040 0.138 0.040 0.311c0 0.178 0.018 0.311 0.044 0.311s0.044 0.053 0.040 0.12c0 0.071-0.013 0.098-0.027 0.067-0.013-0.036-0.151-0.053-0.476-0.053h-0.449l0.031-0.28c0.040-0.324 0.102-0.747 0.169-1.12 0.058-0.329 0.124-0.796 0.173-1.182 0.018-0.16 0.049-0.316 0.067-0.342 0.071-0.12 0.116-0.040 0.116 0.218z"></path>
      <path d="M12.178 11.489v4.156l0.116 0.027c0.2 0.049 2.64-0.009 2.698-0.067 0.027-0.027 0.080-0.049 0.12-0.049 0.098 0 0.333-0.116 0.4-0.2 0.031-0.036 0.076-0.067 0.098-0.067 0.062 0 0.316-0.276 0.391-0.422 0.036-0.076 0.076-0.142 0.089-0.156 0.049-0.049 0.133-0.347 0.133-0.48 0-0.080 0.022-0.142 0.044-0.142 0.031 0 0.044-0.889 0.044-2.578s-0.013-2.578-0.044-2.578c-0.022 0-0.044-0.080-0.044-0.173 0-0.098-0.018-0.191-0.044-0.204-0.022-0.013-0.044-0.071-0.044-0.129s-0.040-0.138-0.089-0.182c-0.049-0.044-0.089-0.098-0.089-0.116 0-0.053-0.4-0.453-0.542-0.542-0.067-0.040-0.151-0.076-0.191-0.076-0.036 0-0.067-0.022-0.067-0.044 0-0.027-0.067-0.044-0.151-0.044s-0.164-0.018-0.182-0.040c-0.013-0.027-0.564-0.044-1.333-0.049l-1.311-0.004v4.16zM14.378 8.756c0.013 0.022 0.067 0.044 0.116 0.044 0.098 0 0.218 0.098 0.218 0.173 0 0.027 0.022 0.049 0.044 0.049 0.031 0 0.044 0.862 0.044 2.493 0 1.649-0.013 2.48-0.044 2.462-0.022-0.013-0.044 0-0.044 0.036 0 0.031-0.049 0.102-0.111 0.156-0.098 0.084-0.164 0.098-0.511 0.098h-0.4v-5.556h0.329c0.182 0 0.347 0.018 0.36 0.044z"></path>
      <path d="M16.898 11.498l0.013 4.169 1.742 0.013c1.067 0.004 1.782-0.009 1.853-0.036l0.116-0.044v-0.622c0-0.476-0.013-0.618-0.053-0.613-0.031 0.009-0.053-0.013-0.049-0.044 0.009-0.040-0.222-0.053-1.053-0.053h-1.067v-2.089h1.689v-0.707c0-0.693 0-0.707-0.098-0.733-0.058-0.013-0.436-0.027-0.844-0.027h-0.747v-2h2.178l0.022-0.102c0.013-0.053 0.018-0.36 0.013-0.676l-0.013-0.578-1.858-0.013-1.853-0.009 0.009 4.164z"></path>
      <path d="M21.169 7.364c-0.044 0.018-0.058 0.889-0.058 4.147v4.124l0.111 0.027c0.133 0.036 4.627 0.031 4.769-0.004 0.053-0.013 0.098-0.053 0.098-0.089s0.022-0.049 0.044-0.036c0.027 0.018 0.044-0.089 0.044-0.284 0-0.182 0.018-0.316 0.044-0.316s0.044-0.124 0.044-0.289c0-0.164 0.018-0.289 0.044-0.289s0.044-0.040 0.044-0.089c0-0.084 0.031-0.089 0.689-0.089h0.689l0.004 0.164c0 0.093 0.009 0.209 0.018 0.258 0.040 0.196 0.071 0.458 0.098 0.724 0.022 0.249 0.036 0.289 0.133 0.324 0.133 0.049 1.302 0.053 1.387 0 0.040-0.027 0.049-0.102 0.031-0.289-0.013-0.138-0.040-0.36-0.053-0.493s-0.044-0.244-0.067-0.244c-0.022 0-0.040-0.111-0.040-0.244s-0.018-0.244-0.044-0.244c-0.027 0-0.044-0.124-0.044-0.289s-0.018-0.289-0.044-0.289c-0.022 0-0.044-0.111-0.044-0.244s-0.018-0.244-0.044-0.244c-0.027 0-0.044-0.124-0.044-0.289s-0.018-0.289-0.044-0.289c-0.027 0-0.044-0.12-0.044-0.267s-0.018-0.267-0.044-0.267c-0.027 0-0.044-0.12-0.044-0.267s-0.018-0.267-0.036-0.267c-0.022 0-0.062-0.227-0.089-0.502-0.089-0.849-0.107-0.987-0.142-1.031-0.022-0.027-0.044-0.16-0.049-0.302-0.004-0.138-0.027-0.253-0.049-0.253-0.018 0-0.036-0.107-0.036-0.24s-0.018-0.258-0.044-0.271c-0.022-0.013-0.044-0.147-0.044-0.293s-0.018-0.262-0.044-0.262c-0.027 0-0.044-0.12-0.044-0.267s-0.018-0.267-0.040-0.267c-0.027 0-0.049-0.084-0.058-0.191l-0.013-0.187-1.031-0.013-1.036-0.009v0.244c0 0.133-0.018 0.244-0.044 0.244-0.022 0-0.044 0.107-0.044 0.24s-0.018 0.258-0.044 0.271c-0.022 0.013-0.044 0.147-0.044 0.289s-0.018 0.267-0.040 0.276c-0.027 0.004-0.049 0.12-0.053 0.249-0.009 0.129-0.027 0.244-0.049 0.258-0.018 0.013-0.036 0.111-0.036 0.218s-0.018 0.209-0.044 0.222c-0.022 0.013-0.044 0.156-0.044 0.311s-0.018 0.298-0.044 0.311c-0.022 0.013-0.044 0.116-0.044 0.222s-0.018 0.209-0.044 0.222c-0.022 0.013-0.044 0.156-0.044 0.311s-0.018 0.298-0.044 0.311c-0.022 0.013-0.044 0.124-0.044 0.244s-0.018 0.227-0.036 0.24c-0.036 0.022-0.102 0.547-0.116 0.893 0 0.071-0.018 0.142-0.036 0.156s-0.036 0.138-0.040 0.28c-0.004 0.138-0.027 0.253-0.049 0.253-0.018 0-0.036 0.12-0.036 0.267s-0.018 0.267-0.044 0.267c-0.027 0-0.044 0.12-0.044 0.267s-0.018 0.267-0.044 0.267c-0.022 0-0.044 0.107-0.044 0.24s-0.018 0.258-0.044 0.271c-0.027 0.018-0.044-0.133-0.044-0.413 0-0.364-0.013-0.449-0.071-0.471-0.040-0.013-0.507-0.027-1.044-0.027h-0.973v-3.329c0-1.831-0.013-3.391-0.027-3.467l-0.027-0.138-0.698 0.004c-0.382 0-0.72 0.013-0.747 0.027zM27.071 10.067c0.022-0.018 0.040 0.093 0.040 0.262 0 0.164 0.018 0.293 0.044 0.293s0.044 0.116 0.044 0.262c0 0.147 0.022 0.28 0.044 0.293 0.027 0.013 0.044 0.147 0.044 0.293s0.018 0.262 0.044 0.262c0.027 0 0.044 0.124 0.044 0.289s0.018 0.289 0.044 0.289c0.027 0 0.044 0.12 0.044 0.267v0.267h-0.933v-0.111c0-0.062 0.022-0.111 0.044-0.111 0.027 0 0.044-0.12 0.044-0.271 0-0.164 0.018-0.258 0.044-0.24s0.044-0.098 0.044-0.32c0-0.24 0.013-0.324 0.044-0.28 0.031 0.049 0.044-0.022 0.044-0.231 0-0.164 0.018-0.307 0.040-0.32 0.018-0.013 0.053-0.191 0.067-0.391 0.067-0.751 0.076-0.831 0.102-0.622 0.009 0.080 0.040 0.133 0.062 0.12z"></path>
      <path d="M29.831 7.369c-0.044 0.031-0.053 0.876-0.053 4.124 0 3.8 0.004 4.089 0.076 4.138 0.093 0.071 1.062 0.080 1.231 0.013l0.116-0.044v-2.364c0-1.404 0.018-2.342 0.040-2.307s0.031 0.089 0.018 0.12c-0.009 0.027 0 0.067 0.027 0.084 0.027 0.013 0.049 0.084 0.049 0.156s0.022 0.142 0.044 0.156c0.027 0.013 0.044 0.076 0.044 0.133s0.022 0.12 0.044 0.133c0.027 0.013 0.044 0.084 0.044 0.156s0.022 0.142 0.044 0.156c0.027 0.013 0.044 0.093 0.044 0.178s0.022 0.164 0.044 0.178c0.027 0.013 0.044 0.107 0.044 0.204 0 0.093 0.022 0.173 0.044 0.173 0.027 0 0.044 0.058 0.044 0.133 0 0.071 0.022 0.133 0.044 0.133 0.027 0 0.044 0.071 0.044 0.156s0.022 0.156 0.044 0.156c0.027 0 0.044 0.080 0.044 0.182 0 0.107 0.018 0.169 0.044 0.151s0.044 0.036 0.044 0.124c0 0.138 0.040 0.307 0.182 0.769 0.022 0.076 0.040 0.178 0.040 0.231s0.022 0.098 0.044 0.098c0.027 0 0.044 0.071 0.044 0.156s0.022 0.156 0.044 0.156c0.027 0 0.044 0.067 0.044 0.142 0.004 0.293 0.071 0.324 0.72 0.338 0.32 0.009 0.649 0.004 0.733-0.013l0.147-0.027v-8.307h-1.333v2.027c0 1.338-0.013 2.013-0.044 1.996-0.022-0.013-0.044-0.098-0.044-0.182s-0.018-0.151-0.044-0.151c-0.022 0-0.044-0.080-0.044-0.178s-0.018-0.178-0.044-0.178c-0.022 0-0.044-0.067-0.044-0.151s-0.018-0.169-0.044-0.182c-0.022-0.013-0.044-0.076-0.044-0.138 0-0.058-0.018-0.107-0.044-0.107-0.022 0-0.044-0.080-0.044-0.178s-0.018-0.178-0.040-0.178c-0.022 0-0.053-0.12-0.071-0.267s-0.049-0.28-0.071-0.293c-0.022-0.013-0.040-0.089-0.040-0.173s-0.018-0.164-0.044-0.178c-0.022-0.013-0.044-0.071-0.044-0.129 0-0.053-0.013-0.116-0.031-0.133s-0.040-0.084-0.049-0.151c-0.009-0.062-0.031-0.138-0.053-0.164s-0.044-0.124-0.053-0.213c-0.004-0.089-0.027-0.164-0.044-0.164s-0.036-0.067-0.036-0.151c0-0.084-0.018-0.169-0.044-0.182-0.022-0.013-0.044-0.067-0.044-0.116 0-0.080-0.040-0.084-0.853-0.084-0.471 0-0.884 0.018-0.916 0.036z"></path>
      <path d="M34.4 8.022v0.689h1.289v3.444c0 3.356 0 3.444 0.084 3.489 0.093 0.049 1.236 0.062 1.356 0.018 0.062-0.027 0.071-0.373 0.071-3.489v-3.462h1.333v-1.378h-4.133v0.689z"></path>
      <path d="M38.898 11.498l0.013 4.169 1.791 0.013 1.787 0.009v-1.422h-2.089v-2.089h1.689v-0.707c0-0.693 0-0.707-0.098-0.733-0.058-0.013-0.436-0.027-0.844-0.027h-0.747v-2h2.089v-1.378h-3.6l0.009 4.164z"></path>
      <path d="M22.516 16.733c-0.098 0.036-0.191 0.093-0.213 0.129-0.022 0.040-0.071 0.071-0.102 0.071-0.036 0-0.067 0.031-0.067 0.067s-0.013 0.067-0.031 0.067c-0.022 0-0.062 0.053-0.089 0.12-0.071 0.147-0.080 1.080-0.013 1.080 0.027 0 0.044 0.031 0.044 0.067s0.022 0.067 0.044 0.067c0.027 0 0.044 0.031 0.044 0.067 0 0.040 0.111 0.182 0.244 0.324 0.138 0.138 0.262 0.267 0.28 0.289 0.018 0.018 0.098 0.089 0.178 0.16 0.076 0.071 0.142 0.16 0.142 0.2s0.022 0.071 0.044 0.071c0.071 0 0.053 0.396-0.018 0.471-0.16 0.156-0.293 0.013-0.293-0.311 0-0.293-0.053-0.338-0.409-0.338-0.338 0-0.436 0.080-0.436 0.36 0 0.12 0.022 0.218 0.044 0.218 0.027 0 0.044 0.080 0.044 0.178s0.022 0.178 0.044 0.178c0.027 0 0.044 0.031 0.044 0.071 0 0.102 0.311 0.373 0.427 0.373 0.058 0 0.116 0.018 0.129 0.044 0.044 0.071 0.613 0.053 0.769-0.027 0.080-0.036 0.151-0.089 0.164-0.111 0.018-0.022 0.049-0.027 0.076-0.013 0.027 0.018 0.036 0.009 0.018-0.018-0.013-0.027 0.018-0.093 0.071-0.151 0.058-0.058 0.129-0.173 0.16-0.262 0.062-0.191 0.071-0.884 0.009-0.884-0.022 0-0.044-0.031-0.044-0.067s-0.018-0.067-0.044-0.067c-0.022 0-0.044-0.044-0.044-0.102 0-0.053-0.040-0.129-0.089-0.164s-0.089-0.080-0.089-0.102c0-0.031-0.133-0.169-0.493-0.502-0.173-0.16-0.351-0.471-0.351-0.609 0.004-0.133 0.218-0.289 0.271-0.204 0.022 0.036 0.040 0.044 0.040 0.027 0-0.022 0.031-0.009 0.067 0.031 0.040 0.040 0.067 0.147 0.067 0.267v0.204h0.756v-0.338c0-0.209-0.018-0.324-0.044-0.307s-0.044-0.027-0.044-0.098c0-0.142-0.253-0.458-0.369-0.458-0.036 0-0.076-0.022-0.084-0.049-0.027-0.076-0.653-0.089-0.853-0.018z"></path>
      <path d="M29.289 16.693c-0.276 0.049-0.333 0.076-0.476 0.222-0.187 0.196-0.236 0.316-0.236 0.6 0 0.12-0.018 0.218-0.044 0.218s-0.044 0.364-0.044 1c0 0.636 0.018 1 0.044 1s0.044 0.080 0.044 0.178c0 0.178-0.067 0.24-0.116 0.111-0.022-0.053-0.116-0.067-0.467-0.067h-0.44l-0.009-1.613-0.013-1.609-0.311-0.013c-0.169-0.009-0.356 0-0.409 0.013l-0.102 0.022v1.649c0 1.609 0 1.64-0.084 1.596-0.049-0.022-0.28-0.044-0.511-0.044h-0.427l-0.009-1.613-0.013-1.609h-0.742l0.009 1.898c0 1.213-0.013 1.902-0.040 1.902-0.022 0-0.040 0.040-0.036 0.089 0.004 0.084 0.049 0.084 1.853 0.076l1.844-0.009 0.013-0.213c0.009-0.116 0.031-0.209 0.058-0.209 0.022 0 0.036 0.013 0.036 0.031-0.013 0.089 0.013 0.151 0.12 0.258 0.062 0.062 0.133 0.102 0.156 0.089 0.022-0.018 0.040-0.004 0.040 0.018 0 0.027 0.040 0.049 0.089 0.049s0.089 0.018 0.089 0.044c0 0.027 0.147 0.044 0.351 0.044 0.196 0 0.369-0.022 0.382-0.044 0.013-0.027 0.067-0.044 0.116-0.044 0.044 0 0.084-0.022 0.084-0.044 0-0.027 0.031-0.044 0.067-0.044 0.076 0 0.244-0.249 0.244-0.369 0-0.040 0.022-0.076 0.044-0.076 0.027 0 0.044-0.209 0.044-0.533v-0.538l-0.733 0.027-0.013 0.396c-0.013 0.396-0.058 0.516-0.2 0.516-0.036 0-0.098-0.049-0.138-0.111-0.062-0.093-0.071-0.271-0.071-1.222 0-1.151 0.004-1.187 0.182-1.253 0.133-0.049 0.213 0.116 0.227 0.462l0.013 0.324 0.733 0.027v-0.516c0-0.311-0.018-0.511-0.044-0.511-0.022 0-0.044-0.036-0.044-0.080-0.004-0.093-0.111-0.222-0.289-0.351-0.138-0.093-0.587-0.16-0.822-0.12z"></path>
      <path d="M7.093 16.782c-0.044 0.111-0.031 0.498 0.018 0.529 0.027 0.013 0.044 0.156 0.044 0.316s0.018 0.284 0.044 0.284c0.027 0 0.044 0.129 0.044 0.293 0 0.182 0.018 0.28 0.044 0.262s0.044 0.067 0.044 0.218c0 0.138 0.022 0.249 0.044 0.249 0.027 0 0.044 0.142 0.044 0.338 0 0.209 0.018 0.324 0.044 0.307s0.044 0.076 0.044 0.244c0 0.169 0.018 0.262 0.044 0.244s0.044 0.076 0.044 0.244c0 0.387 0.022 0.4 0.636 0.4h0.511l0.027-0.213c0.013-0.116 0.044-0.338 0.071-0.498s0.062-0.413 0.071-0.569c0.013-0.151 0.040-0.276 0.062-0.276s0.049-0.116 0.062-0.258c0.022-0.244 0.062-0.529 0.156-1.098 0.129-0.769 0.147-1.009 0.089-1.049-0.036-0.022-0.196-0.040-0.36-0.040-0.24 0-0.302 0.013-0.302 0.067 0 0.036-0.018 0.067-0.044 0.067s-0.044 0.133-0.044 0.311c0 0.178-0.018 0.311-0.044 0.311s-0.044 0.124-0.044 0.289c0 0.164-0.018 0.289-0.044 0.289s-0.044 0.124-0.044 0.289c0 0.164-0.018 0.289-0.044 0.289s-0.044 0.12-0.044 0.271c0 0.329-0.093 0.347-0.107 0.018-0.009-0.209-0.058-0.547-0.16-1.156-0.027-0.147-0.062-0.422-0.084-0.618-0.022-0.213-0.062-0.36-0.098-0.387-0.036-0.022-0.204-0.040-0.378-0.040-0.249 0-0.324 0.013-0.347 0.071z"></path>
      <path d="M9.436 16.742c-0.044 0.018-0.058 0.458-0.058 1.996v1.973h1.867v-0.293c0-0.453-0.009-0.462-0.556-0.462h-0.467v-0.844h0.396c0.458 0 0.449 0.009 0.449-0.427 0-0.267-0.009-0.289-0.116-0.329-0.062-0.027-0.253-0.044-0.422-0.044h-0.307v-0.796l1-0.027 0.013-0.289c0.027-0.529 0.093-0.489-0.893-0.484-0.467 0-0.88 0.013-0.907 0.027z"></path>
      <path d="M11.404 16.782c-0.036 0.093-0.036 3.858 0 3.947 0.018 0.049 0.044 0.058 0.080 0.031 0.031-0.027 0.191-0.049 0.36-0.058l0.311-0.013 0.022-0.889c0.022-0.849 0.036-0.907 0.12-0.431 0.013 0.080 0.040 0.156 0.062 0.169s0.040 0.093 0.040 0.178c0 0.084 0.022 0.151 0.044 0.151 0.027 0 0.044 0.071 0.044 0.156s0.022 0.156 0.044 0.156c0.027 0 0.044 0.058 0.044 0.133 0 0.071 0.022 0.133 0.044 0.133 0.027 0 0.044 0.058 0.044 0.133v0.133h0.356c0.222 0 0.356 0.018 0.356 0.049 0 0.027 0.031 0.018 0.067-0.022 0.058-0.058 0.067-0.329 0.058-2.036l-0.013-1.969h-0.711l-0.013 0.68c-0.004 0.427-0.027 0.671-0.053 0.653-0.027-0.013-0.044-0.084-0.044-0.156s-0.018-0.142-0.044-0.156c-0.022-0.013-0.044-0.084-0.044-0.16 0-0.071-0.018-0.129-0.044-0.129-0.022 0-0.044-0.080-0.044-0.173 0-0.098-0.018-0.191-0.044-0.204-0.022-0.013-0.044-0.084-0.044-0.156 0-0.182-0.102-0.222-0.569-0.222-0.324 0-0.404 0.013-0.427 0.071z"></path>
      <path d="M13.591 17.089c-0.013 0.427-0.022 0.422 0.347 0.422h0.24v3.204l0.822-0.027v-3.178h0.271c0.147 0 0.289-0.022 0.32-0.053 0.040-0.040 0.053 0.24 0.053 1.262 0 1.031 0.013 1.351 0.062 1.498 0.071 0.196 0.338 0.493 0.449 0.493 0.036 0 0.067 0.018 0.067 0.044 0 0.062 0.596 0.058 0.809-0.009 0.151-0.044 0.311-0.164 0.462-0.356 0.058-0.071 0.062-0.093 0.062-0.24 0-0.062 0.018-0.102 0.044-0.084 0.031 0.018 0.044-0.538 0.044-1.636 0-1.48-0.009-1.671-0.071-1.693-0.124-0.049-0.667-0.027-0.72 0.027-0.040 0.040-0.053 0.467-0.053 1.64 0 1.564 0 1.591-0.089 1.618-0.218 0.071-0.222 0.036-0.222-1.64 0-1.156-0.013-1.578-0.053-1.618-0.031-0.031-0.196-0.053-0.422-0.053-0.258 0-0.369 0.018-0.369 0.053 0 0.040-0.013 0.040-0.053 0s-0.329-0.053-1.018-0.053h-0.969l-0.013 0.378z"></path>
      <path d="M17.822 18.711v2h0.844v-0.756c0-0.707 0.004-0.756 0.080-0.756 0.049 0 0.129 0.036 0.178 0.084 0.093 0.076 0.098 0.12 0.098 0.711 0 0.409 0.018 0.622 0.044 0.604 0.027-0.013 0.044 0.004 0.044 0.044 0 0.058 0.058 0.067 0.382 0.058l0.387-0.013-0.009-0.711c-0.004-0.391-0.027-0.729-0.053-0.756-0.022-0.022-0.040-0.076-0.040-0.12s-0.022-0.080-0.049-0.080c-0.022 0-0.036-0.018-0.022-0.040s-0.004-0.062-0.040-0.093c-0.093-0.076-0.084-0.191 0.022-0.267 0.053-0.036 0.089-0.116 0.089-0.187 0-0.067 0.022-0.124 0.044-0.124 0.062 0 0.058-0.738-0.009-0.929-0.093-0.267-0.191-0.422-0.293-0.471-0.053-0.022-0.098-0.058-0.098-0.076 0-0.022-0.040-0.036-0.084-0.036-0.049 0-0.102-0.022-0.116-0.044-0.018-0.027-0.302-0.044-0.716-0.044h-0.684v2zM18.951 17.538c0.058 0.022 0.071 0.102 0.071 0.418 0 0.418-0.013 0.444-0.249 0.444-0.107 0-0.107-0.004-0.107-0.444s0-0.444 0.107-0.444c0.058 0 0.138 0.013 0.178 0.027z"></path>
      <path d="M20.027 16.782c-0.031 0.076-0.036 3.902-0.009 3.933 0.009 0.009 0.431 0.013 0.933 0.004l0.916-0.013v-0.302c0-0.431-0.044-0.462-0.618-0.44l-0.449 0.013v-0.862l0.822-0.027 0.027-0.729-0.16-0.031c-0.084-0.013-0.28-0.022-0.436-0.009l-0.276 0.018 0.013-0.427 0.013-0.422 0.427 0.013c0.649 0.022 0.636 0.031 0.636-0.387 0-0.28-0.013-0.356-0.071-0.378-0.040-0.013-0.444-0.027-0.907-0.027-0.72 0-0.84 0.009-0.862 0.071z"></path>
      </symbol>
    </defs>

  <use href="#icon-logo"></use>
</svg>